<svg xmlns="http://www.w3.org/2000/svg" xmlns:xlink="http://www.w3.org/1999/xlink" style="isolation:isolate" viewBox="0 0 15 15" height="1em"><path d=" M 13.333 1.5 L 12.5 1.5 L 12.5 0.75 C 12.5 0.337 12.125 0 11.667 0 C 11.208 0 10.833 0.337 10.833 0.75 L 10.833 1.5 L 4.167 1.5 L 4.167 0.75 C 4.167 0.337 3.792 0 3.333 0 C 2.875 0 2.5 0.337 2.5 0.75 L 2.5 1.5 L 1.667 1.5 C 0.742 1.5 0.008 2.175 0.008 3 L 0 13.5 C 0 14.325 0.742 15 1.667 15 L 13.333 15 C 14.25 15 15 14.325 15 13.5 L 15 3 C 15 2.175 14.25 1.5 13.333 1.5 Z  M 12.5 13.5 L 2.5 13.5 C 2.042 13.5 1.667 13.163 1.667 12.75 L 1.667 5.25 L 13.333 5.25 L 13.333 12.75 C 13.333 13.163 12.958 13.5 12.5 13.5 Z  M 4.167 6.75 L 6.667 6.75 C 7.125 6.75 7.5 7.087 7.5 7.5 L 7.5 9.75 C 7.5 10.163 7.125 10.5 6.667 10.5 L 4.167 10.5 C 3.708 10.5 3.333 10.163 3.333 9.75 L 3.333 7.5 C 3.333 7.087 3.708 6.75 4.167 6.75 Z "/></svg>