<svg class="menu__icon" xmlns="http://www.w3.org/2000/svg" xmlns:xlink="http://www.w3.org/1999/xlink" style="isolation:isolate" viewBox="0 0 15 13.5"><path d=" M 13.5 1.5 L 11.122 1.5 L 10.192 0.487 C 9.915 0.18 9.51 0 9.09 0 L 5.91 0 C 5.49 0 5.085 0.18 4.8 0.487 L 3.877 1.5 L 1.5 1.5 C 0.675 1.5 0 2.175 0 3 L 0 12 C 0 12.825 0.675 13.5 1.5 13.5 L 13.5 13.5 C 14.325 13.5 15 12.825 15 12 L 15 3 C 15 2.175 14.325 1.5 13.5 1.5 Z  M 7.5 11.25 C 5.43 11.25 3.75 9.57 3.75 7.5 C 3.75 5.43 5.43 3.75 7.5 3.75 C 9.57 3.75 11.25 5.43 11.25 7.5 C 11.25 9.57 9.57 11.25 7.5 11.25 Z "/></svg>