<svg class="category-icon" xmlns="http://www.w3.org/2000/svg" xmlns:xlink="http://www.w3.org/1999/xlink" style="isolation:isolate" viewBox="0 0 15 12" width="15pt" height="12pt"><path d=" M 13.5 1.5 L 7.5 1.5 L 6.443 0.442 C 6.158 0.157 5.775 0 5.377 0 L 1.5 0 C 0.675 0 0.007 0.675 0.007 1.5 L 0 10.5 C 0 11.325 0.675 12 1.5 12 L 13.5 12 C 14.325 12 15 11.325 15 10.5 L 15 3 C 15 2.175 14.325 1.5 13.5 1.5 Z  M 12.75 10.5 L 2.25 10.5 C 1.838 10.5 1.5 10.163 1.5 9.75 L 1.5 3.75 C 1.5 3.337 1.838 3 2.25 3 L 12.75 3 C 13.163 3 13.5 3.337 13.5 3.75 L 13.5 9.75 C 13.5 10.163 13.163 10.5 12.75 10.5 Z "/></svg>