<svg class="menu__icon" xmlns="http://www.w3.org/2000/svg" xmlns:xlink="http://www.w3.org/1999/xlink" style="isolation:isolate" viewBox="0 0 13.8 12.491"><path d=" M 5.398 11.741 L 5.398 7.991 L 8.398 7.991 L 8.398 11.741 C 8.398 12.154 8.736 12.491 9.148 12.491 L 11.398 12.491 C 11.811 12.491 12.148 12.154 12.148 11.741 L 12.148 6.491 L 13.423 6.491 C 13.768 6.491 13.933 6.064 13.671 5.839 L 7.401 0.191 C 7.116 -0.064 6.681 -0.064 6.396 0.191 L 0.126 5.839 C -0.129 6.064 0.028 6.491 0.373 6.491 L 1.648 6.491 L 1.648 11.741 C 1.648 12.154 1.986 12.491 2.398 12.491 L 4.648 12.491 C 5.061 12.491 5.398 12.154 5.398 11.741 Z "/></svg>