<svg xmlns="http://www.w3.org/2000/svg" xmlns:xlink="http://www.w3.org/1999/xlink" style="isolation:isolate" viewBox="0 0 15 7.5"><path d=" M 1.425 3.75 C 1.425 2.467 2.468 1.425 3.75 1.425 L 6.75 1.425 L 6.75 0 L 3.75 0 C 1.68 0 0 1.68 0 3.75 C 0 5.82 1.68 7.5 3.75 7.5 L 6.75 7.5 L 6.75 6.075 L 3.75 6.075 C 2.468 6.075 1.425 5.032 1.425 3.75 Z  M 4.5 4.5 L 10.5 4.5 L 10.5 3 L 4.5 3 L 4.5 4.5 Z  M 11.25 0 L 8.25 0 L 8.25 1.425 L 11.25 1.425 C 12.533 1.425 13.575 2.468 13.575 3.75 C 13.575 5.032 12.533 6.075 11.25 6.075 L 8.25 6.075 L 8.25 7.5 L 11.25 7.5 C 13.32 7.5 15 5.82 15 3.75 C 15 1.68 13.32 0 11.25 0 Z "/></svg>