<svg class="navbar__icon" xmlns="http://www.w3.org/2000/svg" xmlns:xlink="http://www.w3.org/1999/xlink" style="isolation:isolate" viewBox="0 0 13.875 11.25"><path d=" M 1.125 4.5 C 0.502 4.5 0 5.002 0 5.625 C 0 6.248 0.502 6.75 1.125 6.75 C 1.748 6.75 2.25 6.248 2.25 5.625 C 2.25 5.002 1.748 4.5 1.125 4.5 Z  M 1.125 0 C 0.502 0 0 0.502 0 1.125 C 0 1.748 0.502 2.25 1.125 2.25 C 1.748 2.25 2.25 1.748 2.25 1.125 C 2.25 0.502 1.748 0 1.125 0 Z  M 1.125 9 C 0.502 9 0 9.51 0 10.125 C 0 10.74 0.51 11.25 1.125 11.25 C 1.74 11.25 2.25 10.74 2.25 10.125 C 2.25 9.51 1.748 9 1.125 9 Z  M 4.125 10.875 L 13.125 10.875 C 13.538 10.875 13.875 10.538 13.875 10.125 C 13.875 9.712 13.538 9.375 13.125 9.375 L 4.125 9.375 C 3.713 9.375 3.375 9.712 3.375 10.125 C 3.375 10.538 3.713 10.875 4.125 10.875 Z  M 4.125 6.375 L 13.125 6.375 C 13.538 6.375 13.875 6.038 13.875 5.625 C 13.875 5.212 13.538 4.875 13.125 4.875 L 4.125 4.875 C 3.713 4.875 3.375 5.212 3.375 5.625 C 3.375 6.038 3.713 6.375 4.125 6.375 Z  M 3.375 1.125 C 3.375 1.537 3.713 1.875 4.125 1.875 L 13.125 1.875 C 13.538 1.875 13.875 1.537 13.875 1.125 C 13.875 0.713 13.538 0.375 13.125 0.375 L 4.125 0.375 C 3.713 0.375 3.375 0.713 3.375 1.125 Z"/></svg>