<svg xmlns="http://www.w3.org/2000/svg" xmlns:xlink="http://www.w3.org/1999/xlink" style="isolation:isolate" viewBox="0 0 13.118 13.118" width="13.118pt" height="13.118pt"><path d=" M 9.375 8.25 L 8.783 8.25 L 8.573 8.047 C 9.308 7.192 9.75 6.083 9.75 4.875 C 9.75 2.183 7.567 0 4.875 0 C 2.183 0 0 2.183 0 4.875 C 0 7.567 2.183 9.75 4.875 9.75 C 6.083 9.75 7.192 9.308 8.047 8.573 L 8.25 8.782 L 8.25 9.375 L 12 13.118 L 13.118 12 L 9.375 8.25 Z  M 4.875 8.25 C 3.008 8.25 1.5 6.743 1.5 4.875 C 1.5 3.008 3.008 1.5 4.875 1.5 C 6.743 1.5 8.25 3.008 8.25 4.875 C 8.25 6.743 6.743 8.25 4.875 8.25 Z "/></svg>