    <svg width="269" height="306" viewBox="0 0 269 306" fill="none" xmlns="http://www.w3.org/2000/svg" version="1.1" xmlns:xlink="http://www.w3.org/1999/xlink">
    <defs>
      <filter id="f1" x="0" y="0">
        <feGaussianBlur in="SourceGraphic" stdDeviation="0.5" />
      </filter>
    </defs>
    <path id="silhouette"
      d="M138.571 14.7035C181.102 15.1138 212.614 26.3845 233.11 48.5155C248.868 65.0526 255.747 90.3432 253.746 124.387C252.262 136.67 248.637 146.841 242.871 154.9L230.322 176.618C218.013 194.54 211.878 218.548 211.915 248.641C211.943 249.945 212.124 251.386 212.46 252.964L213.031 258.535L216.296 283.455L160.609 279.534C158.183 281.369 111.955 291.428 109.011 291.25L105.943 285.415C102.884 276.414 101.582 269.104 102.039 263.484C100.859 251.819 96.1178 243.664 87.8165 239.019C86.6391 238.163 84.7802 237.979 82.2398 238.468C77.8392 239.996 72.4475 240.546 66.0648 240.119C56.6762 238.744 49.704 234.987 45.1483 228.848C41.9569 225.579 40.4699 220.631 40.6874 214.004C41.4458 208.674 40.4229 205.1 37.6186 203.282C35.6669 201.541 35.0166 198.517 35.6676 194.211L36.2245 192.011C32.1951 189.38 31.4791 184.314 31.7635 179.915L33.4361 173.318C26.5336 173.525 21.5138 171.875 18.3768 168.37C15.6508 166.293 14.5357 162.628 15.0316 157.374C17.0297 149.814 20.8409 144.041 26.4653 140.055C33.8266 128.07 38.1954 113.135 39.5717 95.2489C42.722 71.5966 51.7386 53.7283 66.6216 41.6441C83.744 25.9003 107.727 16.9201 138.571 14.7035Z"
      stroke="white" stroke-miterlimit="3" stroke-linecap="square" />
    <path id="brain"
      d="M202.054 277.411C201.272 271.442 200.29 263.952 199.109 254.942L198.413 250.027C198.085 248.089 197.945 246.428 197.993 245.045C197.956 214.954 204.091 190.946 216.4 173.022L228.949 151.306C230.311 149.401 231.554 147.377 232.68 145.237C236.025 139.839 238.422 133.793 239.38 123.293C239.65 120.358 239.277 115.301 238.263 108.123C233.511 82.5377 223.631 71.787 207.897 51.6719M207.897 51.6719C211.445 63.2543 233.849 83.4176 223.219 95.8684L206.847 87.5482C198.478 86.8405 189.892 86.9209 176.43 85.7838L169.666 84.0841C153.316 79.973 165.704 56.3848 154.845 45.8964C150.404 41.6069 134.736 32.1339 130.375 48.99C123.826 74.3034 137.083 105.181 121.197 128.21C118.267 132.456 109.769 139.232 102.673 136.16C95.6283 133.107 94.9422 126.932 92.6172 119.343C87.8401 103.746 90.2764 88.005 81.0105 72.7193C77.2138 66.4557 65.4141 57.1827 57.614 67.677C46.0191 83.2803 52.4351 115.012 64.73 131.662C67.7828 135.797 72.8941 111.862 84.5327 114.789C112.382 121.792 131.403 156.656 151.82 129.184C164.181 112.552 154.953 71.8058 191.551 71.0961C216.423 70.6118 224.516 100.121 199.552 111.77C174.608 123.407 148.624 116.349 143.259 146.364C142.592 150.083 141.856 159.74 147.666 165.122C153.499 170.527 166.983 166.878 172.492 164.639C185.292 159.438 197.343 153.184 203.999 142.304C209.049 134.054 207.511 123.005 184.688 121.48C161.85 119.955 92.1121 142.445 81.8935 109.082C73.9999 83.3137 130.582 91.5358 149.249 103.324C165.006 113.275 210.96 104.841 193.17 80.7474C189.21 75.3856 174.608 77.9028 169.925 79.1045C165.488 80.2455 92.6172 66.4984 108.953 56.2103C108.953 56.2103 124.777 42.9984 144.193 45.3063C144.193 45.3063 157.409 44.5432 185.153 50.9916C212.898 57.4399 194.5 63 188.353 63.5679C182.206 64.1358 165.43 65.0187 148.475 58.5844C122.05 48.5547 92.7027 37.3566 64.2845 61.7898C57.3912 67.7163 52.3456 104.153 65.1118 102.342C89.6221 98.862 98.8005 74.1544 136.049 74.7915C160.221 75.2032 239.285 77.5342 228.949 117.479C227.684 122.366 224.862 127.212 223.136 131.988C216.421 150.561 210.005 141.584 190.511 150.681C182.727 154.314 170.456 156.566 161.154 156.747C142.276 157.113 137.409 122.868 113.466 126.265C106.674 127.23 99.1286 125.811 92.5078 127.72C64.549 135.783 89.3198 156.501 105.449 161.232C111.509 163.008 117.476 165.096 125.536 167.123C153.551 174.167 164.66 132.304 175.026 119.051C180.712 111.778 186.319 105.408 204.805 95.4391C228.024 82.9216 217.034 126.067 213.977 135.568C209.132 150.62 204.652 138.942 191.643 138.357C167.5 137.273 152.127 161.746 127.076 153.222C121.606 151.359 112.42 149.687 110.2 138.893C109.178 133.929 110.405 127.989 111.181 123.17C113.402 109.347 127.726 74.174 116.479 58.9432C115.717 57.912 114.411 57.1376 113.466 56.2103C96.5292 39.5582 85.4614 58.1355 89.5564 71.5058C90.8372 75.6816 106.776 101.856 115.224 95.6097C139.436 77.7107 140.21 28.7698 190.968 41.5324C196.251 42.8596 205.642 44.3103 207.897 51.6719Z"
      stroke="white" stroke-miterlimit="3" stroke-linecap="square" />
    <circle cx="" cy="" r="3" fill="#0084ff" filter="url(#f1)">
      <animateMotion dur="60s" repeatCount="indefinite">
        <mpath xlink:href="#brain"></mpath>
      </animateMotion>
    </circle>
  </svg>