<svg class="menu__icon" xmlns="http://www.w3.org/2000/svg" xmlns:xlink="http://www.w3.org/1999/xlink" style="isolation:isolate" viewBox="0 0 13.5 15" ><path d=" M 12 1.5 L 8.865 1.5 C 8.55 0.63 7.725 0 6.75 0 C 5.775 0 4.95 0.63 4.635 1.5 L 1.5 1.5 C 0.675 1.5 0 2.175 0 3 L 0 13.5 C 0 14.325 0.675 15 1.5 15 L 12 15 C 12.825 15 13.5 14.325 13.5 13.5 L 13.5 3 C 13.5 2.175 12.825 1.5 12 1.5 Z  M 6.75 1.5 C 7.163 1.5 7.5 1.838 7.5 2.25 C 7.5 2.662 7.163 3 6.75 3 C 6.337 3 6 2.662 6 2.25 C 6 1.838 6.337 1.5 6.75 1.5 Z  M 7.5 12 L 3.75 12 C 3.338 12 3 11.663 3 11.25 C 3 10.837 3.338 10.5 3.75 10.5 L 7.5 10.5 C 7.913 10.5 8.25 10.837 8.25 11.25 C 8.25 11.663 7.913 12 7.5 12 Z  M 9.75 9 L 3.75 9 C 3.338 9 3 8.663 3 8.25 C 3 7.837 3.338 7.5 3.75 7.5 L 9.75 7.5 C 10.163 7.5 10.5 7.837 10.5 8.25 C 10.5 8.663 10.163 9 9.75 9 Z  M 9.75 6 L 3.75 6 C 3.338 6 3 5.663 3 5.25 C 3 4.837 3.338 4.5 3.75 4.5 L 9.75 4.5 C 10.163 4.5 10.5 4.838 10.5 5.25 C 10.5 5.663 10.163 6 9.75 6 Z "/></svg>