<svg xmlns="http://www.w3.org/2000/svg" xmlns:xlink="http://www.w3.org/1999/xlink" style="isolation:isolate" viewBox="0 0 15 15" height="1em"><path d=" M 14.558 7.185 L 7.808 0.435 C 7.538 0.165 7.163 0 6.75 0 L 1.5 0 C 0.675 0 0 0.675 0 1.5 L 0 6.75 C 0 7.163 0.165 7.538 0.442 7.815 L 7.192 14.565 C 7.462 14.835 7.837 15 8.25 15 C 8.663 15 9.038 14.835 9.308 14.558 L 14.558 9.308 C 14.835 9.038 15 8.663 15 8.25 C 15 7.837 14.828 7.455 14.558 7.185 Z  M 2.625 3.75 C 2.003 3.75 1.5 3.248 1.5 2.625 C 1.5 2.003 2.003 1.5 2.625 1.5 C 3.248 1.5 3.75 2.003 3.75 2.625 C 3.75 3.248 3.248 3.75 2.625 3.75 Z "/></svg>