<svg class="web-logo" xmlns="http://www.w3.org/2000/svg" xmlns:xlink="http://www.w3.org/1999/xlink" style="isolation:isolate" viewBox="72.162 78.67 25.796 28.86">
    <path class="web-logo__head" d="M93.588 107.069q-.276-.777-.456-3.225-.181-2.448 1.948-7.522l1.279-2.393q.902-1.279 1.134-3.228.313-5.401-2.152-8.025-3.205-3.511-9.856-3.576-4.824.352-7.502 2.85-2.328 1.917-2.82 5.669-.216 2.838-1.367 4.74-.88.632-1.192 1.831-.078.834.349 1.164.49.556 1.57.523l-.175.698h0c-.029.465.53 1.256.515 1.274q-.518.581.096 1.197.438.289.32 1.134-.034 1.052.465 1.57.712.974 2.181 1.193.998.067 1.359-.131.833-.22 1.414.33c.895.738 1.049 1.38.978 2.272q-.072.891.117 1.655h5.845l1.084.031" fill="none" stroke="#000000" stroke-linecap="round" stroke-linejoin="round" stroke-miterlimit="3" stroke-width=".6"/>
    <path class="web-logo__brain" d="M91.144 81.82q0 .012-.688-.236c-.561-.151-1.599-.578-3.712-.578-5.568 0-6.487 1.765-6.766 1.999q-.278.234 2.138.246 6.177-.024 8.84 0c1.09.013 1.968.355 1.968 1.04s-1.765.929-1.933.93h-11.81q-1.663-.025-1.663 1.064 0 1.09 1.593.963h14.587q1.933-.031 1.933 1.027 0 1.059-1.898.965H79.708q-1.472.089-1.472.992t1.402.969l13.378-.019q1.387-.056 1.108.177c-.278.234-1.239 2.409-7.483 2.409-4.224 0-5.718-.954-5.996-1.076" fill="none" stroke="#000000" stroke-linecap="round" stroke-linejoin="round" stroke-miterlimit="3" stroke-width=".6"/>
</svg>