<svg xmlns="http://www.w3.org/2000/svg" xmlns:xlink="http://www.w3.org/1999/xlink" style="isolation:isolate" viewBox="70.152 192.06 134.973 29.717" width="134.973pt" height="29.717pt"><g><g><path d=" M 139.437 193.064 L 143.831 193.064 L 143.831 193.064 Q 146.178 193.064 147.699 194.563 L 147.699 194.563 L 147.699 194.563 Q 149.219 196.062 149.219 198.408 L 149.219 198.408 L 149.219 200.526 L 149.219 200.526 Q 149.219 202.882 147.699 204.372 L 147.699 204.372 L 147.699 204.372 Q 146.178 205.861 143.831 205.861 L 143.831 205.861 L 138.075 205.861 L 138.075 204.323 L 139.437 204.06 L 139.437 194.875 L 138.075 194.611 L 138.075 193.064 L 139.437 193.064 Z  M 143.7 195.042 L 142.003 195.042 L 142.003 203.893 L 143.7 203.893 L 143.7 203.893 Q 145.079 203.893 145.862 202.961 L 145.862 202.961 L 145.862 202.961 Q 146.644 202.029 146.644 200.526 L 146.644 200.526 L 146.644 198.391 L 146.644 198.391 Q 146.644 196.905 145.862 195.974 L 145.862 195.974 L 145.862 195.974 Q 145.079 195.042 143.7 195.042 L 143.7 195.042 Z  M 150.458 205.861 L 150.458 204.323 L 151.698 204.06 L 151.698 198.162 L 150.327 197.898 L 150.327 196.352 L 154.264 196.352 L 154.264 204.06 L 155.495 204.323 L 155.495 205.861 L 150.458 205.861 Z  M 154.264 192.15 L 154.264 194.075 L 151.698 194.075 L 151.698 192.15 L 154.264 192.15 Z  M 157.437 193.961 L 156.066 193.697 L 156.066 192.15 L 160.003 192.15 L 160.003 204.06 L 161.243 204.323 L 161.243 205.861 L 156.198 205.861 L 156.198 204.323 L 157.437 204.06 L 157.437 193.961 Z  M 161.998 205.861 L 161.998 204.323 L 163.238 204.06 L 163.238 198.162 L 161.867 197.898 L 161.867 196.352 L 165.804 196.352 L 165.804 204.06 L 167.035 204.323 L 167.035 205.861 L 161.998 205.861 Z  M 165.804 192.15 L 165.804 194.075 L 163.238 194.075 L 163.238 192.15 L 165.804 192.15 Z  M 168.037 201.37 L 168.037 201.186 L 168.037 201.186 Q 168.037 198.936 169.017 197.556 L 169.017 197.556 L 169.017 197.556 Q 169.996 196.176 171.763 196.176 L 171.763 196.176 L 171.763 196.176 Q 172.563 196.176 173.169 196.532 L 173.169 196.532 L 173.169 196.532 Q 173.776 196.888 174.206 197.547 L 174.206 197.547 L 174.391 196.352 L 176.623 196.352 L 176.623 205.58 L 176.623 205.58 Q 176.623 207.461 175.441 208.582 L 175.441 208.582 L 175.441 208.582 Q 174.259 209.702 172.194 209.702 L 172.194 209.702 L 172.194 209.702 Q 171.473 209.702 170.664 209.504 L 170.664 209.504 L 170.664 209.504 Q 169.856 209.307 169.17 208.964 L 169.17 208.964 L 169.645 207.162 L 169.645 207.162 Q 170.26 207.426 170.875 207.58 L 170.875 207.58 L 170.875 207.58 Q 171.491 207.733 172.176 207.733 L 172.176 207.733 L 172.176 207.733 Q 173.117 207.733 173.582 207.162 L 173.582 207.162 L 173.582 207.162 Q 174.048 206.591 174.048 205.571 L 174.048 205.571 L 174.048 204.947 L 174.048 204.947 Q 173.626 205.483 173.055 205.765 L 173.055 205.765 L 173.055 205.765 Q 172.484 206.046 171.746 206.046 L 171.746 206.046 L 171.746 206.046 Q 169.996 206.046 169.017 204.758 L 169.017 204.758 L 169.017 204.758 Q 168.037 203.471 168.037 201.37 L 168.037 201.37 Z  M 170.603 201.186 L 170.603 201.37 L 170.603 201.37 Q 170.603 202.618 171.025 203.334 L 171.025 203.334 L 171.025 203.334 Q 171.447 204.051 172.396 204.051 L 172.396 204.051 L 172.396 204.051 Q 172.985 204.051 173.393 203.835 L 173.393 203.835 L 173.393 203.835 Q 173.802 203.62 174.048 203.207 L 174.048 203.207 L 174.048 199.076 L 174.048 199.076 Q 173.802 198.646 173.393 198.408 L 173.393 198.408 L 173.393 198.408 Q 172.985 198.171 172.413 198.171 L 172.413 198.171 L 172.413 198.171 Q 171.473 198.171 171.038 199.006 L 171.038 199.006 L 171.038 199.006 Q 170.603 199.841 170.603 201.186 L 170.603 201.186 Z  M 182.714 206.046 L 182.714 206.046 L 182.714 206.046 Q 180.658 206.046 179.427 204.728 L 179.427 204.728 L 179.427 204.728 Q 178.197 203.409 178.197 201.379 L 178.197 201.379 L 178.197 201.027 L 178.197 201.027 Q 178.197 198.909 179.361 197.538 L 179.361 197.538 L 179.361 197.538 Q 180.526 196.167 182.486 196.176 L 182.486 196.176 L 182.486 196.176 Q 184.411 196.176 185.474 197.336 L 185.474 197.336 L 185.474 197.336 Q 186.538 198.496 186.538 200.474 L 186.538 200.474 L 186.538 201.871 L 180.86 201.871 L 180.842 201.924 L 180.842 201.924 Q 180.913 202.864 181.471 203.471 L 181.471 203.471 L 181.471 203.471 Q 182.029 204.077 182.987 204.077 L 182.987 204.077 L 182.987 204.077 Q 183.839 204.077 184.402 203.906 L 184.402 203.906 L 184.402 203.906 Q 184.964 203.734 185.632 203.365 L 185.632 203.365 L 186.327 204.947 L 186.327 204.947 Q 185.738 205.413 184.802 205.729 L 184.802 205.729 L 184.802 205.729 Q 183.866 206.046 182.714 206.046 Z  M 182.486 198.153 L 182.486 198.153 L 182.486 198.153 Q 181.774 198.153 181.361 198.698 L 181.361 198.698 L 181.361 198.698 Q 180.948 199.243 180.851 200.131 L 180.851 200.131 L 180.877 200.175 L 184.024 200.175 L 184.024 199.946 L 184.024 199.946 Q 184.024 199.129 183.642 198.641 L 183.642 198.641 L 183.642 198.641 Q 183.259 198.153 182.486 198.153 Z  M 187.61 205.861 L 187.61 204.323 L 188.84 204.06 L 188.84 198.162 L 187.478 197.898 L 187.478 196.352 L 191.231 196.352 L 191.345 197.714 L 191.345 197.714 Q 191.82 196.984 192.514 196.58 L 192.514 196.58 L 192.514 196.58 Q 193.208 196.176 194.07 196.176 L 194.07 196.176 L 194.07 196.176 Q 195.511 196.176 196.32 197.081 L 196.32 197.081 L 196.32 197.081 Q 197.128 197.986 197.128 199.92 L 197.128 199.92 L 197.128 204.06 L 198.359 204.323 L 198.359 205.861 L 193.454 205.861 L 193.454 204.323 L 194.553 204.06 L 194.553 199.929 L 194.553 199.929 Q 194.553 198.971 194.166 198.571 L 194.166 198.571 L 194.166 198.571 Q 193.78 198.171 192.997 198.171 L 192.997 198.171 L 192.997 198.171 Q 192.488 198.171 192.083 198.377 L 192.083 198.377 L 192.083 198.377 Q 191.679 198.584 191.407 198.962 L 191.407 198.962 L 191.407 204.06 L 192.444 204.323 L 192.444 205.861 L 187.61 205.861 Z  M 200.407 194.022 L 202.964 194.022 L 202.964 196.352 L 204.634 196.352 L 204.634 198.153 L 202.964 198.153 L 202.964 202.996 L 202.964 202.996 Q 202.964 203.55 203.193 203.787 L 203.193 203.787 L 203.193 203.787 Q 203.421 204.024 203.808 204.024 L 203.808 204.024 L 203.808 204.024 Q 204.072 204.024 204.269 204.002 L 204.269 204.002 L 204.269 204.002 Q 204.467 203.98 204.713 203.928 L 204.713 203.928 L 204.933 205.782 L 204.933 205.782 Q 204.502 205.914 204.08 205.98 L 204.08 205.98 L 204.08 205.98 Q 203.659 206.046 203.166 206.046 L 203.166 206.046 L 203.166 206.046 Q 201.839 206.046 201.123 205.316 L 201.123 205.316 L 201.123 205.316 Q 200.407 204.587 200.407 203.005 L 200.407 203.005 L 200.407 198.153 L 199.009 198.153 L 199.009 196.352 L 200.407 196.352 L 200.407 194.022 Z " fill="rgb(217,163,0)"/><path d=" M 110.624 221.592 L 101 221.592 L 101 220.054 L 102.362 219.79 L 102.362 210.606 L 101 210.342 L 101 208.795 L 102.362 208.795 L 104.929 208.795 L 106.3 208.795 L 106.3 210.342 L 104.929 210.606 L 104.929 219.623 L 108.541 219.623 L 108.664 218.015 L 110.624 218.015 L 110.624 221.592 Z  M 116.161 221.777 L 116.161 221.777 L 116.161 221.777 Q 114.104 221.777 112.874 220.458 L 112.874 220.458 L 112.874 220.458 Q 111.644 219.14 111.644 217.11 L 111.644 217.11 L 111.644 216.758 L 111.644 216.758 Q 111.644 214.64 112.808 213.269 L 112.808 213.269 L 112.808 213.269 Q 113.973 211.898 115.933 211.907 L 115.933 211.907 L 115.933 211.907 Q 117.857 211.907 118.921 213.067 L 118.921 213.067 L 118.921 213.067 Q 119.984 214.227 119.984 216.204 L 119.984 216.204 L 119.984 217.602 L 114.307 217.602 L 114.289 217.655 L 114.289 217.655 Q 114.359 218.595 114.917 219.202 L 114.917 219.202 L 114.917 219.202 Q 115.476 219.808 116.434 219.808 L 116.434 219.808 L 116.434 219.808 Q 117.286 219.808 117.849 219.637 L 117.849 219.637 L 117.849 219.637 Q 118.411 219.465 119.079 219.096 L 119.079 219.096 L 119.773 220.678 L 119.773 220.678 Q 119.185 221.144 118.249 221.46 L 118.249 221.46 L 118.249 221.46 Q 117.313 221.777 116.161 221.777 Z  M 115.933 213.884 L 115.933 213.884 L 115.933 213.884 Q 115.221 213.884 114.808 214.429 L 114.808 214.429 L 114.808 214.429 Q 114.395 214.974 114.298 215.862 L 114.298 215.862 L 114.324 215.906 L 117.471 215.906 L 117.471 215.677 L 117.471 215.677 Q 117.471 214.86 117.088 214.372 L 117.088 214.372 L 117.088 214.372 Q 116.706 213.884 115.933 213.884 Z  M 130.215 221.592 L 127.253 221.592 L 127.253 221.592 Q 127.147 221.355 127.068 221.104 L 127.068 221.104 L 127.068 221.104 Q 126.989 220.854 126.945 220.599 L 126.945 220.599 L 126.945 220.599 Q 126.488 221.126 125.833 221.452 L 125.833 221.452 L 125.833 221.452 Q 125.179 221.777 124.335 221.777 L 124.335 221.777 L 124.335 221.777 Q 122.938 221.777 122.116 221.017 L 122.116 221.017 L 122.116 221.017 Q 121.294 220.256 121.294 218.947 L 121.294 218.947 L 121.294 218.947 Q 121.294 217.611 122.366 216.881 L 122.366 216.881 L 122.366 216.881 Q 123.438 216.152 125.513 216.152 L 125.513 216.152 L 126.822 216.152 L 126.822 215.22 L 126.822 215.22 Q 126.822 214.535 126.427 214.157 L 126.427 214.157 L 126.427 214.157 Q 126.031 213.779 125.258 213.779 L 125.258 213.779 L 125.258 213.779 Q 124.818 213.779 124.476 213.88 L 124.476 213.88 L 124.476 213.88 Q 124.133 213.981 123.922 214.121 L 123.922 214.121 L 123.755 215.141 L 121.821 215.141 L 121.83 213.032 L 121.83 213.032 Q 122.533 212.557 123.443 212.232 L 123.443 212.232 L 123.443 212.232 Q 124.353 211.907 125.425 211.907 L 125.425 211.907 L 125.425 211.907 Q 127.191 211.907 128.294 212.772 L 128.294 212.772 L 128.294 212.772 Q 129.397 213.638 129.397 215.238 L 129.397 215.238 L 129.397 219.166 L 129.397 219.166 Q 129.397 219.386 129.402 219.579 L 129.402 219.579 L 129.402 219.579 Q 129.406 219.773 129.433 219.949 L 129.433 219.949 L 130.215 220.054 L 130.215 221.592 Z  M 125.029 219.878 L 125.029 219.878 L 125.029 219.878 Q 125.609 219.878 126.084 219.628 L 126.084 219.628 L 126.084 219.628 Q 126.559 219.377 126.822 218.999 L 126.822 218.999 L 126.822 217.549 L 125.513 217.549 L 125.513 217.549 Q 124.695 217.549 124.273 217.932 L 124.273 217.932 L 124.273 217.932 Q 123.852 218.314 123.852 218.85 L 123.852 218.85 L 123.852 218.85 Q 123.852 219.333 124.164 219.606 L 124.164 219.606 L 124.164 219.606 Q 124.476 219.878 125.029 219.878 Z  M 131.278 221.592 L 131.278 220.054 L 132.509 219.79 L 132.509 213.893 L 131.146 213.629 L 131.146 212.082 L 134.899 212.082 L 135.014 213.471 L 135.014 213.471 Q 135.348 212.733 135.875 212.32 L 135.875 212.32 L 135.875 212.32 Q 136.402 211.907 137.097 211.907 L 137.097 211.907 L 137.097 211.907 Q 137.299 211.907 137.523 211.937 L 137.523 211.937 L 137.523 211.937 Q 137.747 211.968 137.896 212.012 L 137.896 212.012 L 137.624 214.35 L 136.569 214.324 L 136.569 214.324 Q 136.007 214.324 135.638 214.543 L 135.638 214.543 L 135.638 214.543 Q 135.269 214.763 135.075 215.167 L 135.075 215.167 L 135.075 219.79 L 136.306 220.054 L 136.306 221.592 L 131.278 221.592 Z  M 138.521 221.592 L 138.521 220.054 L 139.751 219.79 L 139.751 213.893 L 138.389 213.629 L 138.389 212.082 L 142.142 212.082 L 142.256 213.445 L 142.256 213.445 Q 142.73 212.715 143.425 212.311 L 143.425 212.311 L 143.425 212.311 Q 144.119 211.907 144.98 211.907 L 144.98 211.907 L 144.98 211.907 Q 146.422 211.907 147.23 212.812 L 147.23 212.812 L 147.23 212.812 Q 148.039 213.717 148.039 215.651 L 148.039 215.651 L 148.039 219.79 L 149.27 220.054 L 149.27 221.592 L 144.365 221.592 L 144.365 220.054 L 145.464 219.79 L 145.464 215.66 L 145.464 215.66 Q 145.464 214.702 145.077 214.302 L 145.077 214.302 L 145.077 214.302 Q 144.69 213.902 143.908 213.902 L 143.908 213.902 L 143.908 213.902 Q 143.398 213.902 142.994 214.108 L 142.994 214.108 L 142.994 214.108 Q 142.59 214.315 142.317 214.693 L 142.317 214.693 L 142.317 219.79 L 143.354 220.054 L 143.354 221.592 L 138.521 221.592 Z  M 154.552 221.777 L 154.552 221.777 L 154.552 221.777 Q 152.495 221.777 151.265 220.458 L 151.265 220.458 L 151.265 220.458 Q 150.034 219.14 150.034 217.11 L 150.034 217.11 L 150.034 216.758 L 150.034 216.758 Q 150.034 214.64 151.199 213.269 L 151.199 213.269 L 151.199 213.269 Q 152.363 211.898 154.323 211.907 L 154.323 211.907 L 154.323 211.907 Q 156.248 211.907 157.312 213.067 L 157.312 213.067 L 157.312 213.067 Q 158.375 214.227 158.375 216.204 L 158.375 216.204 L 158.375 217.602 L 152.697 217.602 L 152.68 217.655 L 152.68 217.655 Q 152.75 218.595 153.308 219.202 L 153.308 219.202 L 153.308 219.202 Q 153.866 219.808 154.824 219.808 L 154.824 219.808 L 154.824 219.808 Q 155.677 219.808 156.239 219.637 L 156.239 219.637 L 156.239 219.637 Q 156.802 219.465 157.47 219.096 L 157.47 219.096 L 158.164 220.678 L 158.164 220.678 Q 157.575 221.144 156.639 221.46 L 156.639 221.46 L 156.639 221.46 Q 155.703 221.777 154.552 221.777 Z  M 154.323 213.884 L 154.323 213.884 L 154.323 213.884 Q 153.611 213.884 153.198 214.429 L 153.198 214.429 L 153.198 214.429 Q 152.785 214.974 152.688 215.862 L 152.688 215.862 L 152.715 215.906 L 155.861 215.906 L 155.861 215.677 L 155.861 215.677 Q 155.861 214.86 155.479 214.372 L 155.479 214.372 L 155.479 214.372 Q 155.097 213.884 154.323 213.884 Z  M 159.781 221.592 L 159.781 220.054 L 161.012 219.79 L 161.012 213.893 L 159.649 213.629 L 159.649 212.082 L 163.402 212.082 L 163.517 213.471 L 163.517 213.471 Q 163.851 212.733 164.378 212.32 L 164.378 212.32 L 164.378 212.32 Q 164.905 211.907 165.6 211.907 L 165.6 211.907 L 165.6 211.907 Q 165.802 211.907 166.026 211.937 L 166.026 211.937 L 166.026 211.937 Q 166.25 211.968 166.399 212.012 L 166.399 212.012 L 166.127 214.35 L 165.072 214.324 L 165.072 214.324 Q 164.51 214.324 164.141 214.543 L 164.141 214.543 L 164.141 214.543 Q 163.771 214.763 163.578 215.167 L 163.578 215.167 L 163.578 219.79 L 164.809 220.054 L 164.809 221.592 L 159.781 221.592 Z " fill="rgb(217,163,0)"/><path d=" M 173.529 220.889 L 173.529 220.889 L 173.529 220.889 Q 174.574 220.889 175.374 220.291 L 175.374 220.291 L 175.374 220.291 Q 176.174 219.694 176.174 218.63 L 176.174 218.63 L 177.106 218.63 L 177.123 218.683 L 177.123 218.683 Q 177.167 220.001 176.073 220.889 L 176.073 220.889 L 176.073 220.889 Q 174.979 221.777 173.529 221.777 L 173.529 221.777 L 173.529 221.777 Q 171.595 221.777 170.531 220.445 L 170.531 220.445 L 170.531 220.445 Q 169.468 219.114 169.468 217.022 L 169.468 217.022 L 169.468 216.653 L 169.468 216.653 Q 169.468 214.579 170.531 213.243 L 170.531 213.243 L 170.531 213.243 Q 171.595 211.907 173.52 211.907 L 173.52 211.907 L 173.52 211.907 Q 174.618 211.907 175.532 212.32 L 175.532 212.32 L 175.532 212.32 Q 176.446 212.733 177.018 213.445 L 177.018 213.445 L 177.062 215.519 L 176.165 215.519 L 175.998 213.831 L 175.998 213.831 Q 175.576 213.357 174.948 213.08 L 174.948 213.08 L 174.948 213.08 Q 174.32 212.803 173.52 212.803 L 173.52 212.803 L 173.52 212.803 Q 171.99 212.803 171.257 213.897 L 171.257 213.897 L 171.257 213.897 Q 170.523 214.992 170.523 216.653 L 170.523 216.653 L 170.523 217.022 L 170.523 217.022 Q 170.523 218.709 171.252 219.799 L 171.252 219.799 L 171.252 219.799 Q 171.982 220.889 173.529 220.889 Z  M 179.083 216.987 L 179.083 216.697 L 179.083 216.697 Q 179.083 214.596 180.235 213.251 L 180.235 213.251 L 180.235 213.251 Q 181.386 211.907 183.284 211.907 L 183.284 211.907 L 183.284 211.907 Q 185.192 211.907 186.343 213.251 L 186.343 213.251 L 186.343 213.251 Q 187.494 214.596 187.494 216.697 L 187.494 216.697 L 187.494 216.987 L 187.494 216.987 Q 187.494 219.096 186.347 220.436 L 186.347 220.436 L 186.347 220.436 Q 185.2 221.777 183.302 221.777 L 183.302 221.777 L 183.302 221.777 Q 181.386 221.777 180.235 220.436 L 180.235 220.436 L 180.235 220.436 Q 179.083 219.096 179.083 216.987 L 179.083 216.987 Z  M 180.138 216.697 L 180.138 216.987 L 180.138 216.987 Q 180.138 218.639 180.973 219.764 L 180.973 219.764 L 180.973 219.764 Q 181.808 220.889 183.302 220.889 L 183.302 220.889 L 183.302 220.889 Q 184.77 220.889 185.605 219.764 L 185.605 219.764 L 185.605 219.764 Q 186.44 218.639 186.44 216.987 L 186.44 216.987 L 186.44 216.697 L 186.44 216.697 Q 186.44 215.071 185.6 213.937 L 185.6 213.937 L 185.6 213.937 Q 184.761 212.803 183.284 212.803 L 183.284 212.803 L 183.284 212.803 Q 181.808 212.803 180.973 213.937 L 180.973 213.937 L 180.973 213.937 Q 180.138 215.071 180.138 216.697 L 180.138 216.697 Z  M 190.412 212.979 L 188.98 212.865 L 188.98 212.082 L 191.344 212.082 L 191.441 213.656 L 191.441 213.656 Q 191.898 212.821 192.662 212.364 L 192.662 212.364 L 192.662 212.364 Q 193.427 211.907 194.482 211.907 L 194.482 211.907 L 194.482 211.907 Q 195.571 211.907 196.301 212.438 L 196.301 212.438 L 196.301 212.438 Q 197.03 212.97 197.347 214.06 L 197.347 214.06 L 197.347 214.06 Q 197.778 213.058 198.573 212.482 L 198.573 212.482 L 198.573 212.482 Q 199.368 211.907 200.511 211.907 L 200.511 211.907 L 200.511 211.907 Q 202.031 211.907 202.862 212.917 L 202.862 212.917 L 202.862 212.917 Q 203.693 213.928 203.693 216.046 L 203.693 216.046 L 203.693 220.696 L 205.125 220.819 L 205.125 221.592 L 201.196 221.592 L 201.196 220.819 L 202.629 220.696 L 202.629 216.029 L 202.629 216.029 Q 202.629 214.271 202.009 213.546 L 202.009 213.546 L 202.009 213.546 Q 201.39 212.821 200.282 212.821 L 200.282 212.821 L 200.282 212.821 Q 199.052 212.821 198.388 213.603 L 198.388 213.603 L 198.388 213.603 Q 197.725 214.385 197.567 215.598 L 197.567 215.598 L 197.567 215.598 Q 197.567 215.668 197.571 215.73 L 197.571 215.73 L 197.571 215.73 Q 197.575 215.791 197.575 215.888 L 197.575 215.888 L 197.575 220.704 L 199.008 220.819 L 199.008 221.592 L 195.088 221.592 L 195.088 220.819 L 196.521 220.704 L 196.521 216.029 L 196.521 216.029 Q 196.521 214.306 195.892 213.563 L 195.892 213.563 L 195.892 213.563 Q 195.264 212.821 194.165 212.821 L 194.165 212.821 L 194.165 212.821 Q 193.04 212.821 192.385 213.388 L 192.385 213.388 L 192.385 213.388 Q 191.731 213.954 191.467 214.913 L 191.467 214.913 L 191.467 220.704 L 192.9 220.819 L 192.9 221.592 L 188.98 221.592 L 188.98 220.819 L 190.412 220.704 L 190.412 212.979 Z  M 168.268 220.129 L 168.268 221.592 L 166.84 221.592 L 166.84 220.129 L 168.268 220.129 Z " fill="rgb(0,0,0)"/><g><path d=" M 118.502 193.047 L 117.07 192.933 L 117.07 192.15 L 119.548 192.15 L 119.548 197.978 L 119.548 197.978 Q 120.023 197.125 120.814 196.65 L 120.814 196.65 L 120.814 196.65 Q 121.605 196.176 122.66 196.176 L 122.66 196.176 L 122.66 196.176 Q 124.162 196.176 124.967 197.107 L 124.967 197.107 L 124.967 197.107 Q 125.771 198.039 125.771 199.999 L 125.771 199.999 L 125.771 204.974 L 127.204 205.088 L 127.204 205.861 L 123.284 205.861 L 123.284 205.088 L 124.716 204.974 L 124.716 199.981 L 124.716 199.981 Q 124.716 198.435 124.105 197.762 L 124.105 197.762 L 124.105 197.762 Q 123.495 197.09 122.422 197.09 L 122.422 197.09 L 122.422 197.09 Q 121.341 197.09 120.616 197.657 L 120.616 197.657 L 120.616 197.657 Q 119.891 198.224 119.548 199.164 L 119.548 199.164 L 119.548 204.974 L 120.981 205.088 L 120.981 205.861 L 117.07 205.861 L 117.07 205.088 L 118.502 204.974 L 118.502 193.047 Z " fill="rgb(0,0,0)"/><path d=" M 132.89 206.046 L 132.89 206.046 L 132.89 206.046 Q 131.097 206.046 129.919 204.732 L 129.919 204.732 L 129.919 204.732 Q 128.742 203.418 128.742 201.388 L 128.742 201.388 L 128.742 200.904 L 128.742 200.904 Q 128.742 198.865 129.915 197.521 L 129.915 197.521 L 129.915 197.521 Q 131.088 196.176 132.749 196.176 L 132.749 196.176 L 132.749 196.176 Q 134.498 196.176 135.5 197.283 L 135.5 197.283 L 135.5 197.283 Q 136.502 198.391 136.502 200.236 L 136.502 200.236 L 136.502 201.133 L 129.788 201.133 L 129.788 201.388 L 129.788 201.388 Q 129.788 202.987 130.644 204.073 L 130.644 204.073 L 130.644 204.073 Q 131.501 205.158 132.89 205.158 L 132.89 205.158 L 132.89 205.158 Q 133.866 205.158 134.56 204.886 L 134.56 204.886 L 134.56 204.886 Q 135.254 204.613 135.746 204.104 L 135.746 204.104 L 136.195 204.824 L 136.195 204.824 Q 135.659 205.387 134.841 205.716 L 134.841 205.716 L 134.841 205.716 Q 134.024 206.046 132.89 206.046 Z  M 132.749 197.072 L 132.749 197.072 L 132.749 197.072 Q 131.589 197.072 130.794 197.964 L 130.794 197.964 L 130.794 197.964 Q 129.998 198.856 129.867 200.201 L 129.867 200.201 L 129.884 200.245 L 135.456 200.245 L 135.456 199.981 L 135.456 199.981 Q 135.456 198.742 134.727 197.907 L 134.727 197.907 L 134.727 197.907 Q 133.997 197.072 132.749 197.072 Z " fill-rule="evenodd" fill="rgb(0,0,0)"/><path d=" M 114.331 205.1 Q 113.947 205.028 113.69 204.732 L 113.69 204.732 L 113.69 204.732 Q 113.352 204.341 113.352 203.409 L 113.352 203.409 L 113.352 197.213 L 115.444 197.213 L 115.444 196.352 L 113.352 196.352 L 113.352 193.917 L 112.288 193.917 L 112.288 196.352 L 110.654 196.352 L 110.654 197.213 L 112.288 197.213 L 112.288 203.409 L 112.288 203.409 Q 112.288 204.48 112.629 205.1 L 110.458 205.1 L 101.458 205.04 L 101.058 205.03 L 101.058 205.83 L 101.458 205.84 L 110.458 205.9 L 115.448 205.9 L 115.451 205.901 Q 115.456 205.901 115.46 205.9 L 115.482 205.9 L 115.482 205.896 Q 115.829 205.838 115.832 205.8 L 115.646 205.026 L 115.646 205.026 Q 115.337 205.078 115.099 205.1 L 114.331 205.1 Z " fill="rgb(0,0,0)"/></g></g><g><path d=" M 92.078 221.121 Q 91.795 220.326 91.61 217.821 Q 91.426 215.316 93.604 210.124 L 94.913 207.674 Q 95.836 206.366 96.074 204.372 Q 96.394 198.845 93.872 196.16 Q 90.592 192.567 83.785 192.5 Q 78.849 192.86 76.109 195.416 Q 73.727 197.378 73.222 201.218 Q 73.002 204.122 71.824 206.068 Q 70.924 206.715 70.604 207.942 Q 70.525 208.795 70.961 209.132 Q 71.463 209.702 72.568 209.668 L 72.389 210.382 L 72.389 210.382 C 72.359 210.858 72.931 211.668 72.916 211.686 Q 72.385 212.28 73.014 212.911 Q 73.463 213.206 73.342 214.072 Q 73.307 215.148 73.817 215.678 Q 74.547 216.675 76.049 216.898 Q 77.071 216.968 77.44 216.765 Q 78.292 216.54 78.887 217.102 C 79.803 217.858 79.96 218.515 79.887 219.427 Q 79.814 220.34 80.008 221.121 L 85.988 221.121 L 87.098 221.153" fill="none" vector-effect="non-scaling-stroke" stroke-width="0.88" stroke="rgb(0,0,0)" stroke-linejoin="round" stroke-linecap="round" stroke-miterlimit="3"/><path d=" M 89.576 195.283 Q 89.576 195.296 88.872 195.042 C 88.298 194.888 87.236 194.451 85.074 194.451 C 79.376 194.451 78.435 196.257 78.151 196.496 Q 77.866 196.735 80.338 196.748 Q 86.659 196.723 89.384 196.748 C 90.499 196.761 91.398 197.111 91.398 197.812 C 91.398 198.513 89.592 198.762 89.42 198.763 Q 89.249 198.764 77.335 198.763 Q 75.633 198.738 75.633 199.853 Q 75.633 200.968 77.263 200.838 L 92.19 200.838 Q 94.168 200.806 94.168 201.889 Q 94.168 202.972 92.226 202.877 L 77.874 202.877 Q 76.367 202.968 76.367 203.891 Q 76.367 204.815 77.802 204.883 L 91.492 204.863 Q 92.911 204.806 92.626 205.045 C 92.342 205.284 91.358 207.51 84.969 207.51 C 80.646 207.51 79.117 206.534 78.832 206.409" fill="none" vector-effect="non-scaling-stroke" stroke-width="0.88" stroke="rgb(217,163,0)" stroke-linejoin="round" stroke-linecap="round" stroke-miterlimit="3"/></g></g></svg>