<svg class="web-name" xmlns="http://www.w3.org/2000/svg" style="isolation:isolate" viewBox="101 129.15 104.125 28.626" stroke-width="0" fill="#000000">
<g class="web-name__light-text">
<path class="web-name__underscore" d="M101.458 142.84l-.4-.01v-.8l.4.01 9 .06h.4v.8h-.4l-9-.06z"/>
<path class="web-name__the" d="M112.288 130.917h1.064v2.435h2.092v.861h-2.092v6.196q0 .932.338 1.323.339.391.901.391.255 0 .497-.022.241-.022.558-.075l.158.783q-.264.114-.641.175-.378.062-.756.062-1.002 0-1.56-.633-.559-.633-.559-2.004v-6.196h-1.634v-.861h1.634v-2.435zm6.214-.87l-1.432-.114v-.783h2.478v5.828q.475-.853 1.266-1.328.791-.474 1.846-.474 1.503 0 2.307.931.804.932.804 2.892v4.975l1.433.114v.773h-3.92v-.773l1.432-.114v-4.993q0-1.546-.611-2.219-.61-.672-1.683-.672-1.081 0-1.806.567-.725.567-1.068 1.507v5.81l1.433.114v.773h-3.911v-.773l1.432-.114v-11.927zm14.388 12.999q-1.793 0-2.971-1.314-1.177-1.314-1.177-3.344v-.484q0-2.039 1.173-3.383 1.173-1.345 2.834-1.345 1.749 0 2.751 1.107 1.002 1.108 1.002 2.953v.897h-6.714v.255q0 1.599.856 2.685.857 1.085 2.246 1.085.976 0 1.67-.272.694-.273 1.186-.782l.449.72q-.536.563-1.354.892-.817.33-1.951.33zm-.141-8.974q-1.16 0-1.955.892-.796.892-.927 2.237l.017.044h5.572v-.264q0-1.239-.729-2.074-.73-.835-1.978-.835z"/>
<path class="web-name__dot-com" d="M173.529 156.889q1.045 0 1.845-.598.8-.597.8-1.661h.932l.017.053q.044 1.318-1.05 2.206-1.094.888-2.544.888-1.934 0-2.998-1.332-1.063-1.331-1.063-3.423v-.369q0-2.074 1.063-3.41 1.064-1.336 2.989-1.336 1.098 0 2.012.413.914.413 1.486 1.125l.044 2.074h-.897l-.167-1.688q-.422-.474-1.05-.751-.628-.277-1.428-.277-1.53 0-2.263 1.094-.734 1.095-.734 2.756v.369q0 1.687.729 2.777.73 1.09 2.277 1.09zm5.554-3.902v-.29q0-2.101 1.152-3.446 1.151-1.344 3.049-1.344 1.908 0 3.059 1.344 1.151 1.345 1.151 3.446v.29q0 2.109-1.147 3.449-1.147 1.341-3.045 1.341-1.916 0-3.067-1.341-1.152-1.34-1.152-3.449zm1.055-.29v.29q0 1.652.835 2.777.835 1.125 2.329 1.125 1.468 0 2.303-1.125t.835-2.777v-.29q0-1.626-.84-2.76-.839-1.134-2.316-1.134-1.476 0-2.311 1.134t-.835 2.76zm10.274-3.718l-1.432-.114v-.783h2.364l.097 1.574q.457-.835 1.221-1.292.765-.457 1.82-.457 1.089 0 1.819.531.729.532 1.046 1.622.431-1.002 1.226-1.578.795-.575 1.938-.575 1.52 0 2.351 1.01.831 1.011.831 3.129v4.65l1.432.123v.773h-3.929v-.773l1.433-.123v-4.667q0-1.758-.62-2.483-.619-.725-1.727-.725-1.23 0-1.894.782-.663.782-.821 1.995 0 .07.004.132.004.061.004.158v4.816l1.433.115v.773h-3.92v-.773l1.433-.115v-4.675q0-1.723-.629-2.466-.628-.742-1.727-.742-1.125 0-1.78.567-.654.566-.918 1.525v5.791l1.433.115v.773h-3.92v-.773l1.432-.115v-7.725zm-22.124 6.838v1.775h-1.731v-1.775h1.731z"/>
</g>
<g class="web-name__bold-text">
<path class="web-name__diligent" d="M139.437 130.064h4.394q2.347 0 3.868 1.499 1.52 1.499 1.52 3.845v2.118q0 2.356-1.52 3.846-1.521 1.489-3.868 1.489h-5.756v-1.538l1.362-.263v-9.185l-1.362-.264v-1.547h1.362zm4.263 1.978h-1.697v8.851h1.697q1.379 0 2.162-.932.782-.932.782-2.435v-2.135q0-1.486-.782-2.417-.783-.932-2.162-.932zm6.758 10.819v-1.538l1.24-.263v-5.898l-1.371-.264v-1.546h3.937v7.708l1.231.263v1.538h-5.037zm3.806-13.711v1.925h-2.566v-1.925h2.566zm3.173 1.811l-1.371-.264v-1.547h3.937v11.91l1.24.263v1.538h-5.045v-1.538l1.239-.263v-10.099zm4.561 11.9v-1.538l1.24-.263v-5.898l-1.371-.264v-1.546h3.937v7.708l1.231.263v1.538h-5.037zm3.806-13.711v1.925h-2.566v-1.925h2.566zm2.233 9.22v-.184q0-2.25.98-3.63.979-1.38 2.746-1.38.8 0 1.406.356.607.356 1.037 1.015l.185-1.195h2.232v9.228q0 1.881-1.182 3.002-1.182 1.12-3.247 1.12-.721 0-1.53-.198-.808-.197-1.494-.54l.475-1.802q.615.264 1.23.418.616.153 1.301.153.941 0 1.406-.571.466-.571.466-1.591v-.624q-.422.536-.993.818-.571.281-1.309.281-1.75 0-2.729-1.288-.98-1.287-.98-3.388zm2.566-.184v.184q0 1.248.422 1.964.422.717 1.371.717.589 0 .997-.216.409-.215.655-.628v-4.131q-.246-.43-.655-.668-.408-.237-.98-.237-.94 0-1.375.835-.435.835-.435 2.18zm12.111 4.86q-2.056 0-3.287-1.318-1.23-1.319-1.23-3.349v-.352q0-2.118 1.164-3.489 1.165-1.371 3.125-1.362 1.925 0 2.988 1.16 1.064 1.16 1.064 3.138v1.397h-5.678l-.018.053q.071.94.629 1.547.558.606 1.516.606.852 0 1.415-.171.562-.172 1.23-.541l.695 1.582q-.589.466-1.525.782-.936.317-2.088.317zm-.228-7.893q-.712 0-1.125.545-.413.545-.51 1.433l.026.044h3.147v-.229q0-.817-.382-1.305-.383-.488-1.156-.488zm5.124 7.708v-1.538l1.23-.263v-5.898l-1.362-.264v-1.546h3.753l.114 1.362q.475-.73 1.169-1.134.694-.404 1.556-.404 1.441 0 2.25.905.808.905.808 2.839v4.14l1.231.263v1.538h-4.905v-1.538l1.099-.263v-4.131q0-.958-.387-1.358-.386-.4-1.169-.4-.509 0-.914.206-.404.207-.676.585v5.098l1.037.263v1.538h-4.834zm12.797-11.839h2.557v2.33h1.67v1.801h-1.67v4.843q0 .554.229.791.228.237.615.237.264 0 .461-.022.198-.022.444-.074l.22 1.854q-.431.132-.853.198-.421.066-.914.066-1.327 0-2.043-.73-.716-.729-.716-2.311v-4.852h-1.398v-1.801h1.398v-2.33z"/>
<path class="web-name__learner" d="M110.624 157.592H101v-1.538l1.362-.264v-9.184l-1.362-.264v-1.547H106.3v1.547l-1.371.264v9.017h3.612l.123-1.608h1.96v3.577zm5.537.185q-2.057 0-3.287-1.319-1.23-1.318-1.23-3.348v-.352q0-2.118 1.164-3.489 1.165-1.371 3.125-1.362 1.924 0 2.988 1.16 1.063 1.16 1.063 3.137v1.398h-5.677l-.018.053q.07.94.628 1.547.559.606 1.517.606.852 0 1.415-.171.562-.172 1.23-.541l.694 1.582q-.588.466-1.524.782-.936.317-2.088.317zm-.228-7.893q-.712 0-1.125.545-.413.545-.51 1.433l.026.044h3.147v-.229q0-.817-.383-1.305-.382-.488-1.155-.488zm14.282 7.708h-2.962q-.106-.237-.185-.488-.079-.25-.123-.505-.457.527-1.112.853-.654.325-1.498.325-1.397 0-2.219-.76-.822-.761-.822-2.07 0-1.336 1.072-2.066 1.072-.729 3.147-.729h1.309v-.932q0-.685-.395-1.063-.396-.378-1.169-.378-.44 0-.782.101-.343.101-.554.241l-.167 1.02h-1.934l.009-2.109q.703-.475 1.613-.8.91-.325 1.982-.325 1.766 0 2.869.865 1.103.866 1.103 2.466v3.928q0 .22.005.413.004.194.031.37l.782.105v1.538zm-5.186-1.714q.58 0 1.055-.25.475-.251.738-.629v-1.45h-1.309q-.818 0-1.24.383-.421.382-.421.918 0 .483.312.756.312.272.865.272zm6.249 1.714v-1.538l1.231-.264v-5.897l-1.363-.264v-1.547h3.753l.115 1.389q.334-.738.861-1.151.527-.413 1.222-.413.202 0 .426.03.224.031.373.075l-.272 2.338-1.055-.026q-.562 0-.931.219-.369.22-.563.624v4.623l1.231.264v1.538h-5.028zm7.243 0v-1.538l1.23-.264v-5.897l-1.362-.264v-1.547h3.753l.114 1.363q.474-.73 1.169-1.134.694-.404 1.555-.404 1.442 0 2.25.905.809.905.809 2.839v4.139l1.231.264v1.538h-4.905v-1.538l1.099-.264v-4.13q0-.958-.387-1.358-.387-.4-1.169-.4-.51 0-.914.206-.404.207-.677.585v5.097l1.037.264v1.538h-4.833zm16.031.185q-2.057 0-3.287-1.319-1.231-1.318-1.231-3.348v-.352q0-2.118 1.165-3.489 1.164-1.371 3.124-1.362 1.925 0 2.989 1.16 1.063 1.16 1.063 3.137v1.398h-5.678l-.017.053q.07.94.628 1.547.558.606 1.516.606.853 0 1.415-.171.563-.172 1.231-.541l.694 1.582q-.589.466-1.525.782-.936.317-2.087.317zm-.229-7.893q-.712 0-1.125.545-.413.545-.51 1.433l.027.044h3.146v-.229q0-.817-.382-1.305t-1.156-.488zm5.458 7.708v-1.538l1.231-.264v-5.897l-1.363-.264v-1.547h3.753l.115 1.389q.334-.738.861-1.151.527-.413 1.222-.413.202 0 .426.03.224.031.373.075l-.272 2.338-1.055-.026q-.562 0-.931.219-.37.22-.563.624v4.623l1.231.264v1.538h-5.028z"/>
</g>
</svg>